<svg width="1432" height="635" viewBox="0 0 1432 635" fill="none" xmlns="http://www.w3.org/2000/svg">
<g style="mix-blend-mode:overlay" opacity="0.6">
<g style="mix-blend-mode:overlay" opacity="0.6">
<path d="M665.256 435.915C667.342 431.858 669.828 428.02 672.677 424.458C678.542 417.107 685.88 411.063 694.219 406.714C702.558 402.366 711.714 399.809 721.1 399.208C730.485 398.607 739.892 399.974 748.718 403.223C757.544 406.472 765.593 411.53 772.348 418.073C779.104 424.616 784.417 432.499 787.946 441.216C791.476 449.933 793.143 459.292 792.843 468.692C792.542 478.092 790.279 487.325 786.2 495.799C782.121 504.273 776.315 511.8 769.155 517.897" stroke="white" stroke-opacity="0.3" stroke-miterlimit="10"/>
</g>
<g style="mix-blend-mode:overlay" opacity="0.6">
<path d="M745.452 531.001C734.935 534.277 723.775 534.929 712.948 532.899C702.121 530.87 691.955 526.221 683.338 519.359C674.721 512.496 667.914 503.629 663.513 493.53C659.112 483.432 657.25 472.409 658.089 461.426" stroke="white" stroke-opacity="0.3" stroke-miterlimit="10"/>
</g>
<g style="mix-blend-mode:overlay" opacity="0.6">
<path d="M785.69 496.654C796.753 509.943 801.924 520.217 798.654 524.322C792.091 532.531 754.126 513.097 713.912 480.907C673.697 448.717 646.4 415.97 652.964 407.713C656.257 403.632 667.343 406.415 682.603 414.207L687.89 410.265C642.365 380.115 605.931 365.18 597.906 375.199C586.983 388.859 632.856 443.707 700.368 497.744C767.879 551.781 831.471 584.504 842.371 570.867C850.465 561.011 827.737 528.543 788.357 490.717" stroke="white" stroke-opacity="0.3" stroke-miterlimit="10"/>
</g>
</g>
<g style="mix-blend-mode:overlay" opacity="0.6">
<g style="mix-blend-mode:overlay" opacity="0.6">
<path d="M1352.08 402.021C1395.79 390.218 1421.66 345.214 1409.86 301.502C1398.05 257.789 1353.05 231.921 1309.34 243.724C1265.63 255.527 1239.76 300.531 1251.56 344.243C1263.36 387.956 1308.37 413.824 1352.08 402.021Z" stroke="white" stroke-opacity="0.3" stroke-miterlimit="10"/>
</g>
<g style="mix-blend-mode:overlay" opacity="0.6">
<path d="M1328.82 298.666C1310.13 309.102 1290.92 321.371 1272.07 327.284C1264.63 329.616 1256.95 331.056 1249.18 331.575C1249.91 338.148 1251.42 344.61 1253.68 350.824C1260.42 351.847 1267.29 351.792 1274.02 350.662C1293.82 347.369 1318.08 332.479 1340.3 320.327C1362.52 308.174 1389.35 297.947 1408.09 301.101C1408.69 301.101 1409.29 301.287 1409.87 301.402C1409.25 299.099 1408.54 296.826 1407.72 294.584C1405.96 289.752 1403.75 285.093 1401.13 280.669C1396.32 279.401 1391.37 278.746 1386.4 278.721C1369.1 278.791 1347.44 288.044 1328.82 298.666Z" stroke="white" stroke-opacity="0.3" stroke-miterlimit="10"/>
</g>
<g style="mix-blend-mode:overlay" opacity="0.6">
<path d="M1282.48 299.199C1296.86 293.494 1314.44 290.34 1330.77 286.583C1347.09 282.826 1364.67 277.306 1375.09 269.537C1378.52 266.994 1381.64 264.042 1384.36 260.747C1381.71 258.465 1378.91 256.351 1375.99 254.416C1365.46 263.136 1346.65 270.14 1329.1 274.106C1309.87 278.744 1287.84 282.896 1274.02 289.946C1267.88 293.145 1262.22 297.189 1257.2 301.959C1255.04 303.838 1252.56 305.855 1250.08 308.059C1249.27 312.443 1248.83 316.888 1248.76 321.347C1258.64 312.395 1267.08 305.415 1282.48 299.199Z" stroke="white" stroke-opacity="0.3" stroke-miterlimit="10"/>
</g>
<g style="mix-blend-mode:overlay" opacity="0.6">
<path d="M1367.08 334.451C1382.73 329.346 1397.89 322.825 1412.35 314.97C1412.06 311.852 1411.58 308.754 1410.92 305.693C1397.05 313.168 1382.57 319.444 1367.64 324.455C1346.33 331.992 1322.09 339.762 1306.04 348.25C1298.94 352.035 1292.18 356.435 1285.84 361.4C1280.67 365.226 1274.41 369.656 1267.41 374.944C1268.82 376.66 1270.28 378.306 1271.81 379.86C1284.53 369.657 1298.44 361.028 1313.23 354.164C1329.72 346.742 1349.09 340.689 1367.08 334.451Z" stroke="white" stroke-opacity="0.3" stroke-miterlimit="10"/>
</g>
<g style="mix-blend-mode:overlay" opacity="0.6">
<path d="M1256.71 287.534C1275.43 282.756 1297.44 269.421 1317.59 258.335C1328.23 252.212 1339.46 247.169 1351.1 243.284C1332.7 238.553 1313.23 240.36 1296.01 248.398C1278.79 256.435 1264.9 270.203 1256.71 287.348V287.534Z" stroke="white" stroke-opacity="0.3" stroke-miterlimit="10"/>
</g>
<g style="mix-blend-mode:overlay" opacity="0.6">
<path d="M1349.09 354.025C1330.53 364.484 1311.22 376.729 1292.34 382.643C1287.78 384.064 1283.13 385.164 1278.42 385.936C1287.42 393.368 1297.9 398.806 1309.15 401.892C1325.59 395.793 1343.75 384.962 1360.61 375.686C1374.44 367.627 1389.35 361.598 1404.89 357.782C1408.34 350.397 1410.68 342.543 1411.84 334.474C1410.2 334.335 1408.48 334.242 1406.65 334.196C1389.39 334.149 1367.64 343.403 1349.09 354.025Z" stroke="white" stroke-opacity="0.3" stroke-miterlimit="10"/>
</g>
<g style="mix-blend-mode:overlay" opacity="0.6">
<path d="M1327.82 404.745C1340.18 405.176 1352.47 402.809 1363.78 397.822C1375.1 392.834 1385.14 385.354 1393.15 375.941C1386.23 375.76 1379.32 376.691 1372.7 378.701C1358.71 382.922 1343.13 393.543 1327.82 404.745Z" stroke="white" stroke-opacity="0.3" stroke-miterlimit="10"/>
</g>
</g>
<g style="mix-blend-mode:overlay" opacity="0.6">
<g style="mix-blend-mode:overlay" opacity="0.6">
<path d="M507.098 124.48C520.225 95.2731 507.188 60.9551 477.981 47.8289C448.774 34.7027 414.456 47.7389 401.33 76.946C388.204 106.153 401.24 140.471 430.447 153.597C459.654 166.723 493.972 153.687 507.098 124.48Z" stroke="white" stroke-opacity="0.3" stroke-miterlimit="10"/>
</g>
<g style="mix-blend-mode:overlay" opacity="0.6">
<path d="M466.108 88.3862C451.799 83.4463 436.284 79.1095 424.363 71.8969C419.643 69.0584 415.269 65.6807 411.329 61.8316C408.196 65.3049 405.494 69.1439 403.282 73.2652C405.919 77.3118 409.184 80.9129 412.953 83.9334C423.992 92.8158 443.311 98.6833 460.148 104.644C476.985 110.604 494.936 120.02 502.171 131.384C502.427 131.755 502.658 132.103 502.867 132.451C503.772 131.059 504.63 129.621 505.441 128.114C507.116 124.932 508.49 121.601 509.546 118.164C507.956 115.024 505.969 112.101 503.633 109.468C495.631 100.307 480.487 93.2333 466.108 88.3862Z" stroke="white" stroke-opacity="0.3" stroke-miterlimit="10"/>
</g>
<g style="mix-blend-mode:overlay" opacity="0.6">
<path d="M438.069 45.0872C449.387 52.7172 466.781 58.0745 482.134 63.5014C490.363 66.2481 498.296 69.8143 505.813 74.1464C499.643 62.2034 489.516 52.775 477.163 47.4742C464.81 42.1734 450.999 41.3296 438.093 45.0872H438.069Z" stroke="white" stroke-opacity="0.3" stroke-miterlimit="10"/>
</g>
<g style="mix-blend-mode:overlay" opacity="0.6">
<path d="M446.418 125.145C432.109 120.205 416.593 115.868 404.673 108.656C401.779 106.913 399.013 104.968 396.393 102.835C396.696 111.081 398.752 119.169 402.423 126.56C413.37 132.381 427.633 136.857 440.458 141.403C451.214 144.904 461.408 149.943 470.723 156.361C476.262 154.714 481.529 152.26 486.354 149.079C485.658 148.151 484.893 147.2 484.035 146.226C475.871 137.066 460.843 129.992 446.418 125.145Z" stroke="white" stroke-opacity="0.3" stroke-miterlimit="10"/>
</g>
</g>
<g style="mix-blend-mode:overlay" opacity="0.6">
<path d="M1204.72 73.1029C1199.24 79.961 1191.85 85.0397 1183.48 87.6966C1175.11 90.3535 1166.14 90.4694 1157.71 88.0295C1149.28 85.5897 1141.75 80.7037 1136.1 73.9895C1130.44 67.2753 1126.9 59.0344 1125.93 50.309C1124.96 41.5836 1126.59 32.7656 1130.63 24.9701C1134.67 17.1746 1140.93 10.7518 1148.62 6.5139C1156.31 2.27599 1165.08 0.413338 1173.83 1.16149C1182.57 1.90965 1190.9 5.23502 1197.76 10.7171C1206.96 18.0676 1212.86 28.7697 1214.16 40.4691C1215.46 52.1685 1212.07 63.9072 1204.72 73.1029Z" stroke="white" stroke-opacity="0.3" stroke-miterlimit="10"/>
</g>
<g style="mix-blend-mode:overlay" opacity="0.6">
<path d="M530.581 184.516C527.868 187.908 524.21 190.42 520.069 191.733C515.929 193.046 511.492 193.102 507.319 191.894C503.147 190.685 499.427 188.267 496.629 184.944C493.831 181.621 492.082 177.543 491.602 173.225C491.122 168.908 491.932 164.546 493.932 160.689C495.931 156.833 499.029 153.656 502.834 151.56C506.639 149.465 510.98 148.545 515.308 148.916C519.636 149.288 523.757 150.934 527.149 153.648C529.404 155.448 531.281 157.674 532.674 160.2C534.067 162.727 534.948 165.503 535.267 168.37C535.586 171.237 535.336 174.139 534.532 176.91C533.728 179.68 532.386 182.265 530.581 184.516V184.516Z" stroke="white" stroke-opacity="0.3" stroke-miterlimit="10"/>
</g>
<g style="mix-blend-mode:overlay" opacity="0.6">
<g style="mix-blend-mode:overlay" opacity="0.6">
<path d="M879.656 273.063C887.34 254.41 878.449 233.06 859.796 225.376C841.144 217.692 819.794 226.583 812.11 245.236C804.425 263.888 813.317 285.239 831.969 292.923C850.622 300.607 871.972 291.715 879.656 273.063Z" stroke="white" stroke-opacity="0.3" stroke-miterlimit="10"/>
</g>
<g style="mix-blend-mode:overlay" opacity="0.6">
<path d="M827.505 257.014C832.283 257.014 836.156 253.141 836.156 248.363C836.156 243.585 832.283 239.712 827.505 239.712C822.727 239.712 818.854 243.585 818.854 248.363C818.854 253.141 822.727 257.014 827.505 257.014Z" stroke="white" stroke-opacity="0.3" stroke-miterlimit="10"/>
</g>
<g style="mix-blend-mode:overlay" opacity="0.6">
<path d="M844.644 235.121C844.644 235.781 844.448 236.427 844.081 236.976C843.714 237.525 843.192 237.953 842.582 238.206C841.972 238.459 841.301 238.525 840.653 238.396C840.005 238.267 839.41 237.949 838.943 237.482C838.476 237.015 838.158 236.42 838.029 235.772C837.9 235.124 837.966 234.453 838.219 233.843C838.472 233.232 838.9 232.711 839.449 232.344C839.998 231.977 840.644 231.781 841.304 231.781C841.744 231.778 842.179 231.862 842.586 232.029C842.992 232.196 843.362 232.441 843.673 232.752C843.983 233.063 844.229 233.432 844.396 233.839C844.563 234.245 844.647 234.681 844.644 235.121V235.121Z" stroke="white" stroke-opacity="0.3" stroke-miterlimit="10"/>
</g>
<g style="mix-blend-mode:overlay" opacity="0.6">
<path d="M871.129 238.437C871.133 239.098 870.941 239.746 870.577 240.299C870.213 240.851 869.693 241.282 869.083 241.539C868.473 241.795 867.801 241.865 867.152 241.738C866.502 241.612 865.905 241.296 865.436 240.83C864.966 240.364 864.646 239.769 864.515 239.12C864.385 238.472 864.449 237.799 864.701 237.188C864.953 236.576 865.382 236.053 865.931 235.685C866.481 235.317 867.128 235.121 867.789 235.121C868.226 235.117 868.66 235.201 869.065 235.366C869.47 235.532 869.839 235.775 870.149 236.084C870.46 236.392 870.706 236.759 870.874 237.162C871.042 237.566 871.129 237.999 871.129 238.437V238.437Z" stroke="white" stroke-opacity="0.3" stroke-miterlimit="10"/>
</g>
<g style="mix-blend-mode:overlay" opacity="0.6">
<path d="M832.561 280.762C832.561 281.423 832.365 282.07 831.997 282.62C831.629 283.169 831.106 283.597 830.494 283.849C829.882 284.101 829.21 284.166 828.561 284.035C827.913 283.905 827.318 283.584 826.852 283.115C826.386 282.646 826.069 282.048 825.943 281.399C825.817 280.75 825.886 280.077 826.143 279.468C826.399 278.858 826.831 278.338 827.383 277.974C827.935 277.61 828.583 277.418 829.245 277.422C830.126 277.428 830.97 277.783 831.591 278.409C832.212 279.034 832.561 279.88 832.561 280.762V280.762Z" stroke="white" stroke-opacity="0.3" stroke-miterlimit="10"/>
</g>
<g style="mix-blend-mode:overlay" opacity="0.6">
<path d="M861.156 245.07C861.156 246.383 860.767 247.666 860.037 248.757C859.307 249.848 858.27 250.699 857.056 251.2C855.843 251.701 854.508 251.831 853.221 251.573C851.934 251.316 850.752 250.682 849.825 249.752C848.898 248.822 848.269 247.638 848.015 246.35C847.762 245.061 847.897 243.727 848.402 242.515C848.908 241.304 849.762 240.27 850.855 239.543C851.949 238.817 853.234 238.432 854.547 238.437C856.302 238.443 857.983 239.145 859.222 240.388C860.461 241.631 861.156 243.315 861.156 245.07V245.07Z" stroke="white" stroke-opacity="0.3" stroke-miterlimit="10"/>
</g>
<g style="mix-blend-mode:overlay" opacity="0.6">
<path d="M879.339 273.804C877.03 271.952 874.158 270.946 871.198 270.952C869.473 270.952 867.764 271.292 866.17 271.953C864.576 272.614 863.128 273.583 861.908 274.805C860.689 276.026 859.723 277.476 859.064 279.071C858.406 280.666 858.069 282.376 858.072 284.102C858.061 287.113 859.103 290.033 861.017 292.358C869.193 288.629 875.713 282.026 879.339 273.804V273.804Z" stroke="white" stroke-opacity="0.3" stroke-miterlimit="10"/>
</g>
</g>
<path d="M961.182 99.6342L959.211 97.6861L961.182 95.7148C961.239 95.6585 961.283 95.5916 961.314 95.518C961.344 95.4444 961.36 95.3655 961.36 95.2858C961.36 95.2061 961.344 95.1272 961.314 95.0536C961.283 94.98 961.239 94.9131 961.182 94.8567C961.126 94.8004 961.059 94.7557 960.985 94.7252C960.912 94.6947 960.833 94.679 960.753 94.679C960.673 94.679 960.595 94.6947 960.521 94.7252C960.447 94.7557 960.38 94.8004 960.324 94.8567L958.376 96.828L956.405 94.8567C956.348 94.8004 956.281 94.7557 956.208 94.7252C956.134 94.6947 956.055 94.679 955.976 94.679C955.896 94.679 955.817 94.6947 955.743 94.7252C955.67 94.7557 955.603 94.8004 955.547 94.8567C955.49 94.9131 955.446 94.98 955.415 95.0536C955.385 95.1272 955.369 95.2061 955.369 95.2858C955.369 95.3655 955.385 95.4444 955.415 95.518C955.446 95.5916 955.49 95.6585 955.547 95.7148L957.518 97.6861L955.547 99.6342C955.49 99.6906 955.446 99.7575 955.415 99.8311C955.385 99.9047 955.369 99.9836 955.369 100.063C955.369 100.143 955.385 100.222 955.415 100.295C955.446 100.369 955.49 100.436 955.547 100.492C955.603 100.549 955.67 100.593 955.743 100.624C955.817 100.654 955.896 100.67 955.976 100.67C956.055 100.67 956.134 100.654 956.208 100.624C956.281 100.593 956.348 100.549 956.405 100.492L958.376 98.521L960.324 100.492C960.38 100.549 960.447 100.593 960.521 100.624C960.595 100.654 960.673 100.67 960.753 100.67C960.833 100.67 960.912 100.654 960.985 100.624C961.059 100.593 961.126 100.549 961.182 100.492C961.239 100.436 961.283 100.369 961.314 100.295C961.344 100.222 961.36 100.143 961.36 100.063C961.36 99.9836 961.344 99.9047 961.314 99.8311C961.283 99.7575 961.239 99.6906 961.182 99.6342Z" fill="white"/>
<path d="M921.756 627.015L919.785 625.043L921.756 623.072C921.867 622.961 921.929 622.811 921.929 622.655C921.929 622.498 921.867 622.348 921.756 622.237C921.646 622.126 921.496 622.064 921.339 622.064C921.182 622.064 921.032 622.126 920.922 622.237L918.95 624.208L916.979 622.237C916.868 622.126 916.718 622.064 916.562 622.064C916.405 622.064 916.255 622.126 916.144 622.237C916.033 622.348 915.971 622.498 915.971 622.655C915.971 622.811 916.033 622.961 916.144 623.072L918.092 625.043L916.144 627.015C916.035 627.131 915.974 627.284 915.974 627.444C915.974 627.603 916.035 627.757 916.144 627.873C916.198 627.929 916.263 627.974 916.335 628.004C916.406 628.035 916.484 628.05 916.562 628.05C916.639 628.05 916.717 628.035 916.788 628.004C916.86 627.974 916.925 627.929 916.979 627.873L918.95 625.902L920.922 627.873C920.976 627.929 921.041 627.974 921.112 628.004C921.184 628.035 921.261 628.05 921.339 628.05C921.417 628.05 921.494 628.035 921.566 628.004C921.638 627.974 921.702 627.929 921.756 627.873C921.866 627.757 921.927 627.603 921.927 627.444C921.927 627.284 921.866 627.131 921.756 627.015Z" fill="white"/>
<path d="M8.44194 112.761L6.47064 110.789L8.44194 108.818C8.55265 108.707 8.61484 108.557 8.61484 108.401C8.61484 108.244 8.55265 108.094 8.44194 107.983C8.33122 107.873 8.18106 107.81 8.02449 107.81C7.86791 107.81 7.71775 107.873 7.60703 107.983L5.63574 109.955L3.66444 107.983C3.5483 107.874 3.39484 107.813 3.23538 107.813C3.07593 107.813 2.92248 107.874 2.80634 107.983C2.75023 108.037 2.70559 108.102 2.67511 108.174C2.64462 108.246 2.62891 108.323 2.62891 108.401C2.62891 108.479 2.64462 108.556 2.67511 108.627C2.70559 108.699 2.75023 108.764 2.80634 108.818L4.77764 110.789L2.80634 112.761C2.75023 112.815 2.70559 112.88 2.67511 112.951C2.64462 113.023 2.62891 113.1 2.62891 113.178C2.62891 113.256 2.64462 113.333 2.67511 113.405C2.70559 113.477 2.75023 113.542 2.80634 113.596C2.92248 113.705 3.07593 113.766 3.23538 113.766C3.39484 113.766 3.5483 113.705 3.66444 113.596L5.63574 111.624L7.60703 113.596C7.66185 113.65 7.72694 113.694 7.79857 113.724C7.8702 113.753 7.94696 113.769 8.02449 113.769C8.10201 113.769 8.17877 113.753 8.2504 113.724C8.32203 113.694 8.38712 113.65 8.44194 113.596C8.49676 113.541 8.54025 113.476 8.56992 113.404C8.59959 113.332 8.61484 113.256 8.61484 113.178C8.61484 113.101 8.59959 113.024 8.56992 112.952C8.54025 112.881 8.49676 112.816 8.44194 112.761Z" fill="white"/>
<path d="M107.447 633.462L105.476 631.491L107.447 629.519C107.504 629.465 107.548 629.4 107.579 629.329C107.609 629.257 107.625 629.18 107.625 629.102C107.625 629.024 107.609 628.947 107.579 628.875C107.548 628.803 107.504 628.739 107.447 628.685C107.331 628.575 107.178 628.514 107.018 628.514C106.859 628.514 106.705 628.575 106.589 628.685L104.618 630.656L102.647 628.685C102.536 628.574 102.386 628.512 102.229 628.512C102.073 628.512 101.923 628.574 101.812 628.685C101.701 628.795 101.639 628.945 101.639 629.102C101.639 629.259 101.701 629.409 101.812 629.519L103.783 631.491L101.812 633.462C101.701 633.573 101.639 633.723 101.639 633.88C101.639 634.036 101.701 634.186 101.812 634.297C101.923 634.408 102.073 634.47 102.229 634.47C102.386 634.47 102.536 634.408 102.647 634.297L104.618 632.326L106.589 634.297C106.705 634.406 106.859 634.467 107.018 634.467C107.178 634.467 107.331 634.406 107.447 634.297C107.504 634.243 107.548 634.178 107.579 634.106C107.609 634.035 107.625 633.957 107.625 633.88C107.625 633.802 107.609 633.724 107.579 633.653C107.548 633.581 107.504 633.516 107.447 633.462Z" fill="white"/>
<path d="M600.945 205.551L598.974 203.58L600.945 201.608C601.001 201.554 601.046 201.489 601.076 201.418C601.107 201.346 601.122 201.269 601.122 201.191C601.122 201.113 601.107 201.036 601.076 200.964C601.046 200.892 601.001 200.828 600.945 200.773C600.893 200.714 600.828 200.667 600.756 200.634C600.684 200.602 600.606 200.585 600.527 200.585C600.448 200.585 600.37 200.602 600.298 200.634C600.226 200.667 600.162 200.714 600.11 200.773L598.139 202.722L596.167 200.773C596.115 200.714 596.051 200.667 595.979 200.634C595.907 200.602 595.829 200.585 595.75 200.585C595.671 200.585 595.593 200.602 595.521 200.634C595.449 200.667 595.385 200.714 595.332 200.773C595.276 200.828 595.232 200.892 595.201 200.964C595.171 201.036 595.155 201.113 595.155 201.191C595.155 201.269 595.171 201.346 595.201 201.418C595.232 201.489 595.276 201.554 595.332 201.608L597.304 203.58L595.332 205.551C595.222 205.662 595.16 205.812 595.16 205.968C595.16 206.125 595.222 206.275 595.332 206.386C595.443 206.497 595.593 206.559 595.75 206.559C595.907 206.559 596.057 206.497 596.167 206.386L598.139 204.415L600.11 206.386C600.221 206.497 600.371 206.559 600.527 206.559C600.684 206.559 600.834 206.497 600.945 206.386C601.056 206.275 601.118 206.125 601.118 205.968C601.118 205.812 601.056 205.662 600.945 205.551Z" fill="white"/>
<path d="M1169.89 588.841L1167.94 586.893L1169.89 584.922C1169.94 584.867 1169.99 584.801 1170.03 584.727C1170.06 584.653 1170.07 584.573 1170.07 584.493C1170.07 584.412 1170.06 584.332 1170.03 584.258C1169.99 584.184 1169.94 584.118 1169.89 584.064C1169.83 584.007 1169.77 583.963 1169.69 583.932C1169.62 583.902 1169.55 583.886 1169.47 583.886C1169.39 583.886 1169.31 583.902 1169.24 583.932C1169.17 583.963 1169.1 584.007 1169.05 584.064L1167.08 586.035L1165.11 584.064C1165.05 584.007 1164.99 583.963 1164.92 583.932C1164.85 583.902 1164.77 583.886 1164.69 583.886C1164.61 583.886 1164.54 583.902 1164.46 583.932C1164.39 583.963 1164.33 584.007 1164.27 584.064C1164.16 584.18 1164.1 584.333 1164.1 584.493C1164.1 584.652 1164.16 584.806 1164.27 584.922L1166.24 586.893L1164.27 588.841C1164.16 588.957 1164.1 589.111 1164.1 589.27C1164.1 589.43 1164.16 589.583 1164.27 589.699C1164.33 589.755 1164.39 589.8 1164.46 589.83C1164.54 589.861 1164.61 589.877 1164.69 589.877C1164.77 589.877 1164.85 589.861 1164.92 589.83C1164.99 589.8 1165.05 589.755 1165.11 589.699L1167.08 587.728L1169.05 589.699C1169.1 589.755 1169.17 589.8 1169.24 589.83C1169.31 589.861 1169.39 589.877 1169.47 589.877C1169.55 589.877 1169.62 589.861 1169.69 589.83C1169.77 589.8 1169.83 589.755 1169.89 589.699C1169.94 589.645 1169.99 589.579 1170.03 589.505C1170.06 589.431 1170.07 589.351 1170.07 589.27C1170.07 589.189 1170.06 589.109 1170.03 589.036C1169.99 588.962 1169.94 588.895 1169.89 588.841Z" fill="white"/>
<g style="mix-blend-mode:overlay" opacity="0.4" filter="url(#filter0_d_1_3928)">
<path style="mix-blend-mode:overlay" opacity="0.6" d="M1153.12 261.837C1153.12 261.998 1153.09 262.156 1153.02 262.304C1152.96 262.452 1152.87 262.586 1152.76 262.698C1152.64 262.811 1152.51 262.899 1152.36 262.958C1152.21 263.018 1152.05 263.046 1151.89 263.043C1151.57 263.043 1151.26 262.916 1151.04 262.69C1150.81 262.464 1150.68 262.157 1150.68 261.837C1150.68 261.677 1150.71 261.518 1150.77 261.369C1150.83 261.22 1150.91 261.084 1151.03 260.97C1151.14 260.855 1151.27 260.764 1151.42 260.702C1151.57 260.64 1151.73 260.608 1151.89 260.608C1152.21 260.608 1152.53 260.738 1152.76 260.968C1152.99 261.199 1153.12 261.511 1153.12 261.837Z" fill="url(#paint0_linear_1_3928)"/>
<path style="mix-blend-mode:overlay" opacity="0.6" d="M1227.54 109.073C1227.54 109.417 1227.44 109.754 1227.25 110.04C1227.06 110.326 1226.78 110.549 1226.47 110.68C1226.15 110.812 1225.8 110.846 1225.46 110.779C1225.12 110.712 1224.81 110.546 1224.57 110.303C1224.33 110.06 1224.16 109.75 1224.09 109.413C1224.03 109.075 1224.06 108.725 1224.19 108.408C1224.33 108.09 1224.55 107.818 1224.83 107.627C1225.12 107.436 1225.46 107.334 1225.8 107.334C1226.26 107.334 1226.7 107.517 1227.03 107.843C1227.36 108.17 1227.54 108.612 1227.54 109.073Z" fill="url(#paint1_linear_1_3928)"/>
<g style="mix-blend-mode:overlay" opacity="0.6">
<path d="M572.674 539.396C572.674 540.075 572.473 540.739 572.095 541.303C571.718 541.868 571.182 542.308 570.555 542.567C569.928 542.827 569.238 542.895 568.572 542.763C567.906 542.63 567.294 542.303 566.814 541.823C566.334 541.343 566.007 540.732 565.875 540.066C565.743 539.4 565.811 538.71 566.07 538.083C566.33 537.455 566.77 536.919 567.335 536.542C567.899 536.165 568.563 535.964 569.241 535.964C569.692 535.964 570.139 536.053 570.555 536.225C570.971 536.398 571.35 536.65 571.669 536.969C571.987 537.288 572.24 537.666 572.413 538.083C572.585 538.499 572.674 538.945 572.674 539.396Z" fill="white"/>
</g>
<g style="mix-blend-mode:overlay" opacity="0.6">
<path d="M657.324 353.398C657.324 354.531 656.988 355.639 656.359 356.581C655.729 357.523 654.834 358.257 653.788 358.691C652.741 359.124 651.589 359.238 650.478 359.017C649.367 358.796 648.346 358.25 647.545 357.449C646.744 356.648 646.198 355.627 645.977 354.516C645.756 353.405 645.87 352.253 646.303 351.206C646.737 350.16 647.471 349.265 648.413 348.635C649.355 348.006 650.463 347.67 651.596 347.67C653.113 347.676 654.566 348.282 655.639 349.355C656.712 350.428 657.318 351.881 657.324 353.398Z" fill="white"/>
</g>
<g style="mix-blend-mode:overlay" opacity="0.6">
<path d="M944.763 368.056C944.763 368.74 944.559 369.409 944.179 369.978C943.798 370.547 943.257 370.989 942.624 371.25C941.991 371.511 941.295 371.578 940.624 371.443C939.953 371.308 939.338 370.976 938.855 370.491C938.373 370.005 938.046 369.387 937.915 368.715C937.784 368.044 937.856 367.348 938.121 366.717C938.386 366.086 938.833 365.548 939.404 365.171C939.976 364.794 940.646 364.595 941.33 364.6C941.783 364.6 942.231 364.69 942.649 364.864C943.067 365.037 943.447 365.292 943.766 365.614C944.085 365.935 944.337 366.316 944.508 366.735C944.679 367.154 944.766 367.603 944.763 368.056Z" fill="white"/>
</g>
<g style="mix-blend-mode:overlay" opacity="0.6">
<path d="M685.548 293.123C685.548 293.806 685.346 294.475 684.966 295.043C684.586 295.611 684.047 296.054 683.415 296.316C682.784 296.577 682.089 296.645 681.419 296.512C680.748 296.379 680.133 296.05 679.649 295.566C679.166 295.083 678.837 294.467 678.704 293.797C678.57 293.127 678.639 292.432 678.9 291.801C679.162 291.169 679.605 290.629 680.173 290.25C680.741 289.87 681.409 289.667 682.093 289.667C682.547 289.667 682.996 289.757 683.415 289.93C683.834 290.104 684.215 290.359 684.536 290.68C684.857 291 685.112 291.381 685.285 291.801C685.459 292.22 685.548 292.669 685.548 293.123Z" fill="white"/>
</g>
<g style="mix-blend-mode:overlay" opacity="0.6">
<path d="M1322.74 518.848C1322.74 519.532 1322.54 520.2 1322.16 520.768C1321.78 521.336 1321.24 521.779 1320.61 522.041C1319.98 522.303 1319.28 522.371 1318.61 522.238C1317.94 522.104 1317.33 521.775 1316.84 521.292C1316.36 520.809 1316.03 520.193 1315.9 519.523C1315.76 518.852 1315.83 518.157 1316.09 517.526C1316.36 516.895 1316.8 516.355 1317.37 515.975C1317.93 515.596 1318.6 515.393 1319.29 515.393C1319.74 515.393 1320.19 515.482 1320.61 515.656C1321.03 515.83 1321.41 516.084 1321.73 516.405C1322.05 516.726 1322.31 517.107 1322.48 517.526C1322.65 517.945 1322.74 518.395 1322.74 518.848Z" fill="white"/>
</g>
<g style="mix-blend-mode:overlay" opacity="0.6">
<path d="M1256.55 476.338C1256.55 477.471 1256.22 478.578 1255.59 479.52C1254.96 480.462 1254.06 481.197 1253.02 481.63C1251.97 482.064 1250.82 482.177 1249.71 481.956C1248.6 481.735 1247.57 481.19 1246.77 480.388C1245.97 479.587 1245.43 478.567 1245.21 477.455C1244.98 476.344 1245.1 475.192 1245.53 474.146C1245.97 473.099 1246.7 472.204 1247.64 471.575C1248.58 470.945 1249.69 470.609 1250.82 470.609C1252.34 470.609 1253.8 471.213 1254.87 472.287C1255.95 473.362 1256.55 474.819 1256.55 476.338Z" fill="white"/>
</g>
<g style="mix-blend-mode:overlay" opacity="0.6">
<path d="M513.234 589.374C513.238 590.059 513.039 590.729 512.663 591.301C512.286 591.872 511.748 592.318 511.117 592.583C510.486 592.849 509.79 592.92 509.118 592.79C508.446 592.659 507.828 592.332 507.343 591.849C506.857 591.367 506.526 590.751 506.391 590.08C506.255 589.409 506.322 588.713 506.583 588.081C506.844 587.448 507.287 586.907 507.856 586.526C508.425 586.145 509.094 585.942 509.778 585.942C510.69 585.942 511.566 586.303 512.213 586.946C512.861 587.589 513.227 588.462 513.234 589.374Z" fill="white"/>
</g>
<g style="mix-blend-mode:overlay" opacity="0.6">
<path d="M1184.64 197.225C1184.64 197.51 1184.55 197.788 1184.39 198.024C1184.23 198.26 1184.01 198.445 1183.75 198.554C1183.48 198.662 1183.2 198.691 1182.92 198.635C1182.64 198.58 1182.38 198.443 1182.18 198.242C1181.98 198.041 1181.84 197.785 1181.79 197.506C1181.73 197.227 1181.76 196.938 1181.87 196.675C1181.98 196.412 1182.16 196.188 1182.4 196.03C1182.63 195.872 1182.91 195.787 1183.2 195.787C1183.58 195.793 1183.94 195.947 1184.21 196.215C1184.48 196.483 1184.63 196.846 1184.64 197.225Z" fill="white"/>
</g>
<g style="mix-blend-mode:overlay" opacity="0.6">
<path d="M1297.9 84.4668C1297.89 85.6012 1297.53 86.7049 1296.89 87.6389C1296.24 88.5729 1295.34 89.2956 1294.28 89.7161C1293.23 90.1365 1292.08 90.2359 1290.97 90.0017C1289.86 89.7675 1288.84 89.2103 1288.05 88.4C1287.25 87.5898 1286.71 86.5627 1286.5 85.4481C1286.29 84.3335 1286.41 83.1812 1286.85 82.136C1287.3 81.0909 1288.04 80.1997 1288.98 79.5745C1289.93 78.9493 1291.04 78.6181 1292.18 78.6225C1292.94 78.6255 1293.69 78.7795 1294.39 79.0757C1295.09 79.3719 1295.73 79.8044 1296.26 80.348C1296.79 80.8916 1297.21 81.5356 1297.49 82.2427C1297.78 82.9497 1297.92 83.7057 1297.9 84.4668Z" fill="white"/>
</g>
<g style="mix-blend-mode:overlay" opacity="0.6">
<path d="M1321.26 144.765C1321.26 145.174 1321.14 145.573 1320.91 145.912C1320.68 146.252 1320.36 146.516 1319.98 146.672C1319.61 146.829 1319.19 146.869 1318.79 146.79C1318.39 146.71 1318.02 146.514 1317.73 146.225C1317.45 145.936 1317.25 145.568 1317.17 145.168C1317.09 144.768 1317.13 144.353 1317.29 143.975C1317.44 143.598 1317.71 143.276 1318.05 143.049C1318.39 142.822 1318.79 142.701 1319.19 142.701C1319.46 142.701 1319.73 142.755 1319.98 142.858C1320.23 142.962 1320.46 143.114 1320.65 143.306C1320.84 143.497 1321 143.725 1321.1 143.975C1321.2 144.226 1321.26 144.494 1321.26 144.765Z" fill="white"/>
</g>
<path style="mix-blend-mode:overlay" opacity="0.6" d="M371.44 215.871C371.901 215.871 372.343 216.054 372.67 216.381C372.996 216.707 373.179 217.149 373.179 217.611C373.179 218.072 372.996 218.514 372.67 218.841C372.343 219.167 371.901 219.35 371.44 219.35C370.978 219.35 370.536 219.167 370.21 218.841C369.883 218.514 369.7 218.072 369.7 217.611C369.7 217.149 369.883 216.707 370.21 216.381C370.536 216.054 370.978 215.871 371.44 215.871Z" fill="url(#paint2_linear_1_3928)"/>
<g style="mix-blend-mode:overlay" opacity="0.6">
<path d="M459.614 258.776C459.904 258.776 460.187 258.862 460.428 259.024C460.669 259.186 460.856 259.415 460.966 259.683C461.076 259.952 461.103 260.247 461.045 260.531C460.987 260.815 460.845 261.075 460.639 261.278C460.432 261.482 460.169 261.619 459.884 261.673C459.6 261.727 459.305 261.694 459.038 261.58C458.772 261.466 458.545 261.275 458.388 261.032C458.23 260.789 458.148 260.504 458.153 260.214C458.153 260.023 458.191 259.834 458.264 259.658C458.338 259.482 458.446 259.323 458.582 259.189C458.718 259.055 458.879 258.95 459.057 258.879C459.234 258.808 459.423 258.773 459.614 258.776Z" fill="white"/>
</g>
<g style="mix-blend-mode:overlay" opacity="0.6">
<path d="M257.73 116.564C258.867 116.541 259.986 116.857 260.943 117.473C261.9 118.088 262.653 118.974 263.104 120.019C263.556 121.063 263.686 122.219 263.478 123.337C263.27 124.456 262.734 125.488 261.938 126.3C261.141 127.113 260.121 127.67 259.007 127.901C257.892 128.131 256.735 128.025 255.681 127.595C254.628 127.165 253.726 126.431 253.091 125.487C252.457 124.542 252.118 123.43 252.117 122.293C252.123 120.795 252.713 119.359 253.761 118.289C254.809 117.219 256.233 116.6 257.73 116.564Z" fill="white"/>
</g>
<g style="mix-blend-mode:overlay" opacity="0.6">
<path d="M318.028 93.0941C318.437 93.0941 318.836 93.2151 319.175 93.4419C319.515 93.6688 319.779 93.9911 319.935 94.3683C320.092 94.7454 320.132 95.1604 320.053 95.5608C319.973 95.9612 319.777 96.329 319.488 96.6177C319.199 96.9063 318.831 97.1029 318.431 97.1826C318.031 97.2622 317.616 97.2213 317.239 97.0651C316.861 96.9089 316.539 96.6443 316.312 96.3049C316.085 95.9655 315.964 95.5664 315.964 95.1582C315.964 94.6107 316.182 94.0857 316.569 93.6986C316.956 93.3115 317.481 93.0941 318.028 93.0941Z" fill="white"/>
</g>
<g style="mix-blend-mode:overlay" opacity="0.6">
<path d="M1299.04 566.322C1299.03 567 1298.83 567.661 1298.45 568.222C1298.07 568.784 1297.53 569.22 1296.9 569.476C1296.28 569.733 1295.59 569.797 1294.92 569.662C1294.26 569.527 1293.65 569.198 1293.17 568.718C1292.69 568.237 1292.37 567.625 1292.24 566.96C1292.11 566.295 1292.18 565.606 1292.44 564.98C1292.7 564.354 1293.14 563.819 1293.7 563.443C1294.27 563.067 1294.93 562.866 1295.61 562.866C1296.06 562.866 1296.51 562.956 1296.93 563.13C1297.34 563.304 1297.72 563.559 1298.04 563.88C1298.36 564.201 1298.61 564.582 1298.78 565.001C1298.96 565.42 1299.04 565.869 1299.04 566.322Z" fill="white"/>
</g>
<g style="mix-blend-mode:overlay" opacity="0.6">
<path d="M7.83649e-05 566.067C0.00465857 565.389 0.209853 564.728 0.589781 564.166C0.969709 563.605 1.50736 563.168 2.13494 562.912C2.76251 562.656 3.45189 562.591 4.11618 562.726C4.78046 562.861 5.38988 563.19 5.86759 563.671C6.3453 564.152 6.66991 564.764 6.80048 565.429C6.93105 566.094 6.86174 566.783 6.60128 567.409C6.34083 568.035 5.90089 568.569 5.33695 568.946C4.77301 569.322 4.11032 569.522 3.43245 569.522C2.97974 569.522 2.53152 569.433 2.11356 569.259C1.69561 569.085 1.3162 568.83 0.997165 568.509C0.678134 568.188 0.425781 567.807 0.254658 567.387C0.083535 566.968 -0.00298045 566.519 7.83649e-05 566.067Z" fill="white"/>
</g>
<g style="mix-blend-mode:overlay" opacity="0.6">
<path d="M66.1891 608.577C66.1983 607.446 66.542 606.343 67.177 605.407C67.812 604.471 68.7098 603.745 69.7573 603.318C70.8048 602.892 71.9551 602.785 73.0632 603.011C74.1713 603.237 75.1877 603.786 75.9842 604.589C76.7807 605.392 77.3217 606.413 77.539 607.523C77.7562 608.633 77.6401 609.782 77.2052 610.826C76.7703 611.87 76.0361 612.762 75.0951 613.39C74.1541 614.017 73.0485 614.352 71.9175 614.352C71.1605 614.355 70.4104 614.207 69.7109 613.918C69.0115 613.628 68.3766 613.202 67.8435 612.665C67.3103 612.127 66.8895 611.489 66.6054 610.787C66.3214 610.085 66.1799 609.334 66.1891 608.577Z" fill="white"/>
</g>
<g style="mix-blend-mode:overlay" opacity="0.6">
<path d="M23.7019 518.593C23.7019 517.914 23.9032 517.251 24.2804 516.686C24.6575 516.122 25.1936 515.682 25.8208 515.422C26.448 515.162 27.1381 515.094 27.8039 515.227C28.4697 515.359 29.0813 515.686 29.5613 516.166C30.0414 516.646 30.3683 517.258 30.5007 517.924C30.6331 518.589 30.5652 519.279 30.3054 519.907C30.0456 520.534 29.6057 521.07 29.0412 521.447C28.4767 521.824 27.8131 522.026 27.1343 522.026C26.224 522.026 25.3509 521.664 24.7072 521.02C24.0635 520.377 23.7019 519.503 23.7019 518.593Z" fill="white"/>
</g>
<path style="mix-blend-mode:overlay" opacity="0.6" d="M21.5916 197.318C21.5916 197.638 21.4646 197.944 21.2384 198.171C21.0122 198.397 20.7055 198.524 20.3857 198.524C20.2253 198.527 20.066 198.498 19.917 198.439C19.768 198.38 19.6323 198.291 19.5179 198.179C19.4034 198.067 19.3125 197.933 19.2504 197.785C19.1884 197.637 19.1565 197.478 19.1565 197.318C19.1565 197.156 19.1883 196.997 19.2501 196.848C19.3118 196.698 19.4024 196.563 19.5165 196.449C19.6306 196.335 19.7661 196.244 19.9153 196.182C20.0644 196.121 20.2242 196.089 20.3857 196.089C20.546 196.089 20.7047 196.121 20.8526 196.183C21.0004 196.245 21.1344 196.336 21.2467 196.45C21.359 196.565 21.4473 196.7 21.5066 196.849C21.5658 196.998 21.5947 197.158 21.5916 197.318Z" fill="url(#paint3_linear_1_3928)"/>
<g style="mix-blend-mode:overlay" opacity="0.6">
<path d="M53.1324 132.613C53.137 132.903 53.0553 133.188 52.8976 133.431C52.7398 133.674 52.5133 133.865 52.2467 133.979C51.9802 134.093 51.6857 134.126 51.4008 134.072C51.1159 134.018 50.8534 133.881 50.6467 133.677C50.44 133.474 50.2985 133.214 50.2403 132.93C50.182 132.646 50.2095 132.351 50.3194 132.082C50.4293 131.814 50.6165 131.585 50.8573 131.423C51.098 131.261 51.3814 131.175 51.6714 131.175C52.0549 131.175 52.423 131.326 52.6964 131.595C52.9697 131.864 53.1263 132.229 53.1324 132.613Z" fill="white"/>
</g>
</g>
<defs>
<filter id="filter0_d_1_3928" x="-4" y="78.6224" width="1330.74" height="543.73" filterUnits="userSpaceOnUse" color-interpolation-filters="sRGB">
<feFlood flood-opacity="0" result="BackgroundImageFix"/>
<feColorMatrix in="SourceAlpha" type="matrix" values="0 0 0 0 0 0 0 0 0 0 0 0 0 0 0 0 0 0 127 0" result="hardAlpha"/>
<feOffset dy="4"/>
<feGaussianBlur stdDeviation="2"/>
<feComposite in2="hardAlpha" operator="out"/>
<feColorMatrix type="matrix" values="0 0 0 0 0 0 0 0 0 0 0 0 0 0 0 0 0 0 0.25 0"/>
<feBlend mode="normal" in2="BackgroundImageFix" result="effect1_dropShadow_1_3928"/>
<feBlend mode="normal" in="SourceGraphic" in2="effect1_dropShadow_1_3928" result="shape"/>
</filter>
<linearGradient id="paint0_linear_1_3928" x1="1150.68" y1="261.93" x2="1153.12" y2="261.93" gradientUnits="userSpaceOnUse">
<stop stop-color="white"/>
<stop offset="1" stop-color="#FBE9F5"/>
</linearGradient>
<linearGradient id="paint1_linear_1_3928" x1="1224.06" y1="109.073" x2="1227.54" y2="109.073" gradientUnits="userSpaceOnUse">
<stop stop-color="white"/>
<stop offset="1" stop-color="#FBE9F5"/>
</linearGradient>
<linearGradient id="paint2_linear_1_3928" x1="371.44" y1="219.35" x2="371.44" y2="215.871" gradientUnits="userSpaceOnUse">
<stop stop-color="white"/>
<stop offset="1" stop-color="#FBE9F5"/>
</linearGradient>
<linearGradient id="paint3_linear_1_3928" x1="19.1565" y1="197.318" x2="21.5916" y2="197.318" gradientUnits="userSpaceOnUse">
<stop stop-color="white"/>
<stop offset="1" stop-color="#FBE9F5"/>
</linearGradient>
</defs>
</svg>
